<svg width="20" height="20" viewBox="0 0 20 20" fill="none" xmlns="http://www.w3.org/2000/svg">
<g clip-path="url(#clip0_1015_14799)">
<mask id="mask0_1015_14799" style="mask-type:luminance" maskUnits="userSpaceOnUse" x="0" y="0" width="20" height="20">
<path d="M-8.74228e-07 0L0 20L20 20L20 -8.74228e-07L-8.74228e-07 0Z" fill="white"/>
</mask>
<g mask="url(#mask0_1015_14799)">
<path fill-rule="evenodd" clip-rule="evenodd" d="M-1.75191e-07 5.9921L0 10L4.0079 10L14 10L14 9.97656L0.0234388 -4L-6.11959e-07 -4L-4.37446e-07 -0.00760078L10.0076 10L4.0079 10L-1.75191e-07 5.9921ZM6 -4L14 4L14 -0.0158011L10.0158 -4L6 -4Z" fill="black"/>
<path fill-rule="evenodd" clip-rule="evenodd" d="M10 5.9921L10 10L14.0079 10L24 10L24 9.97656L10.0234 -4L10 -4L10 -0.00760078L20.0076 10L14.0079 10L10 5.9921ZM16 -4L24 4L24 -0.0158011L20.0158 -4L16 -4Z" fill="black"/>
<path fill-rule="evenodd" clip-rule="evenodd" d="M10 15.9921L10 20L14.0079 20L24 20L24 19.9766L10.0234 6L10 6L10 9.99236L20.0076 20L14.0079 20L10 15.9921ZM16 6L24 14L24 9.98418L20.0158 6L16 6Z" fill="black"/>
<path fill-rule="evenodd" clip-rule="evenodd" d="M-1.75191e-07 15.9921L0 20L4.0079 20L14 20L14 19.9766L0.0234388 6L-6.11959e-07 6L-4.37448e-07 9.99236L10.0076 20L4.0079 20L-1.75191e-07 15.9921ZM6 6L14 14L14 9.98418L10.0158 6L6 6Z" fill="black"/>
<path fill-rule="evenodd" clip-rule="evenodd" d="M4 9.9921L4 14L8.0079 14L18 14L18 13.9766L4.02344 -1.02459e-09L4 0L4 3.99236L14.0076 14L8.0079 14L4 9.9921ZM10 -2.62268e-07L18 8L18 3.98418L14.0158 -4.37805e-07L10 -2.62268e-07Z" fill="black"/>
<path fill-rule="evenodd" clip-rule="evenodd" d="M8 13.9921L8 18L12.0079 18L22 18L22 17.9766L8.02344 4L8 4L8 7.99236L18.0076 18L12.0079 18L8 13.9921ZM14 4L22 12L22 7.98418L18.0158 4L14 4Z" fill="black"/>
</g>
</g>
<defs>
<clipPath id="clip0_1015_14799">
<rect width="20" height="20" fill="white"/>
</clipPath>
</defs>
</svg>
