<svg width="15" height="15" viewBox="0 0 15 15" fill="none" xmlns="http://www.w3.org/2000/svg">
<path d="M14.6883 10.5385L4.46603 0.314162C4.36647 0.214567 4.24823 0.135559 4.11808 0.0816524C3.98793 0.0277462 3.84843 0 3.70754 0C3.56666 0 3.42715 0.0277462 3.297 0.0816524C3.16686 0.135559 3.04862 0.214567 2.94905 0.314162L0.311751 2.95461C0.112076 3.15531 0 3.4268 0 3.70979C0 3.99278 0.112076 4.26427 0.311751 4.46497L10.534 14.6893C10.6341 14.7886 10.7529 14.8672 10.8836 14.9205C11.0142 14.9738 11.154 15.0008 11.2951 15C11.5782 15.0002 11.8499 14.8885 12.051 14.6893L14.6883 12.0489C14.8879 11.8482 15 11.5767 15 11.2937C15 11.0107 14.8879 10.7392 14.6883 10.5385ZM11.2951 13.9288L1.06756 3.70979L3.70486 1.0747L5.73644 3.10457L4.53036 4.28822L5.28617 5.0434L6.49225 3.85975L8.70608 6.07173L7.5 7.2768L8.26117 8.03734L9.46725 6.83227L11.6811 9.04424L10.475 10.2493L11.2523 11.0045L12.4583 9.79943L13.9324 11.2937L11.2951 13.9288Z" fill="black"/>
</svg>
