<svg width="16" height="17" viewBox="0 0 16 17" fill="none" xmlns="http://www.w3.org/2000/svg">
<path fill-rule="evenodd" clip-rule="evenodd" d="M2 2.5V2.49997L4.4 2.49997V3.69997L3.2 3.69997V4.9H2V3.69997V2.5ZM11.6 3.7L12.8 3.7V4.9H14V2.5H14H12.8H11.6L11.6 3.7ZM3.19997 13.3H4.4L4.4 14.5H3.19997H2H1.99997L1.99997 12.1L3.19997 12.1L3.19997 13.3ZM12.8 12.1V13.3H11.6L11.6 14.5H14V14.5V13.3V12.1L12.8 12.1ZM6.80003 3.69997V2.49997L9.20003 2.49997V3.69997L6.80003 3.69997ZM14 7.30003H12.8V9.70003H14V7.30003ZM3.19997 9.69997H1.99997L1.99997 7.29997H3.19997L3.19997 9.69997ZM9.19997 14.5V13.3H6.79997V14.5H9.19997Z" fill="black"/>
</svg>