<svg width="22" height="19" viewBox="0 0 22 19" fill="none" xmlns="http://www.w3.org/2000/svg">
<path d="M2.4514 11.435C3.91957 12.9032 2.16344 16.2133 5.71716 16.2133C6.90376 16.3828 11.9783 15.868 13.0163 16.4175C13.6249 16.7397 14.1345 17.1058 14.816 17.3257C16.0096 17.7107 20.4019 19.6166 21.3815 17.9839C21.7754 17.3274 21.4982 15.9375 21.4982 15.1844C21.4982 13.1272 21.7981 11.1106 21.7981 9.06873C21.7981 7.51224 21.5013 5.81053 20.465 4.5695C18.933 2.73487 16.3467 1.62937 14.1411 0.845133C12.6619 0.319199 10.9852 0.370214 9.43355 0.370214C8.62 0.370214 7.81904 0.321543 7.02562 0.528521C5.63991 0.890011 3.95849 1.62059 2.75135 2.34488C1.59286 3.03997 0.201782 3.75758 0.201782 5.23605C0.201782 6.35426 0.309235 7.33618 0.660038 8.41051C1.05333 9.61497 1.54268 10.5263 2.4514 11.435Z" fill="#A6FF99"/>
<path d="M4.5625 9.87679C5.58223 10.9215 4.3625 13.2768 6.83078 13.2768C7.65494 13.3975 11.1795 13.0311 11.9005 13.4221C12.3232 13.6514 12.6771 13.9119 13.1505 14.0683C13.9795 14.3423 17.0302 15.6985 17.7106 14.5367C17.9842 14.0696 17.7917 13.0806 17.7917 12.5447C17.7917 11.0809 18 9.64594 18 8.19305C18 7.08552 17.7939 5.87465 17.0741 4.99158C16.01 3.68614 14.2137 2.8995 12.6817 2.34148C11.6543 1.96724 10.4897 2.00354 9.41204 2.00354C8.84698 2.00354 8.29066 1.96891 7.73958 2.11619C6.77712 2.37341 5.60927 2.89326 4.77083 3.40863C3.96619 3.90323 3 4.41386 3 5.46588C3 6.26154 3.07463 6.96024 3.31829 7.72469C3.59145 8.58173 3.93134 9.23018 4.5625 9.87679Z" fill="#FBFF99"/>
<path d="M6.93095 9.00068C7.40682 9.48284 6.83761 10.5699 7.98948 10.5699C8.37409 10.6256 10.0189 10.4565 10.3553 10.637C10.5526 10.7428 10.7178 10.863 10.9387 10.9352C11.3256 11.0617 12.7492 11.6876 13.0668 11.1514C13.1944 10.9358 13.1046 10.4794 13.1046 10.232C13.1046 9.55641 13.2018 8.89413 13.2018 8.22357C13.2018 7.7124 13.1056 7.15354 12.7697 6.74597C12.2731 6.14345 11.4348 5.78039 10.7199 5.52284C10.2405 5.35012 9.697 5.36687 9.19407 5.36687C8.93037 5.36687 8.67076 5.35089 8.41359 5.41886C7.96444 5.53758 7.41944 5.77751 7.02817 6.01537C6.65267 6.24365 6.20178 6.47932 6.20178 6.96487C6.20178 7.3321 6.23661 7.65458 6.35032 8.0074C6.47779 8.40296 6.63641 8.70224 6.93095 9.00068Z" fill="#FFB266"/>
<circle cx="9" cy="8" r="0.5" fill="#002033" stroke="#002033"/>
<circle cx="15" cy="11" r="0.5" fill="#002033" stroke="#002033"/>
</svg>
