<svg width="10" height="9" viewBox="0 0 10 9" fill="none" xmlns="http://www.w3.org/2000/svg">
<path d="M2.66667 0C2.29848 0 2 0.309957 2 0.692308V6.23077C2 6.61312 2.29848 6.92308 2.66667 6.92308H9.33333C9.70152 6.92308 10 6.61312 10 6.23077V1.38462C10 1.00226 9.70152 0.692308 9.33333 0.692308H5.33333C5.33333 0.309957 5.03486 0 4.66667 0H2.66667Z" fill="black"/>
<path d="M1.33333 2.76923H0.666667C0.298477 2.76923 0 3.07919 0 3.46154V8.30769C0 8.69004 0.298477 9 0.666666 9H7.33333C7.70152 9 8 8.69004 8 8.30769V7.61539H2C1.63181 7.61539 1.33333 7.30543 1.33333 6.92308V2.76923Z" fill="black"/>
</svg>
