<svg width="251" height="124" viewBox="0 0 251 124" fill="none" xmlns="http://www.w3.org/2000/svg">
<path d="M69 22.22C66.4 10.8 59.87 1.52 59 0C55.0164 6.01259 51.8928 12.5525 49.72 19.43C47.0672 28.5115 46.2781 38.0357 47.4 47.43C48.2488 53.598 49.8368 59.6415 52.13 65.43C53.9515 69.7935 56.2558 73.9393 59 77.79C61.84 74.09 68.38 63.07 70.42 48.66C71.57 40.65 71.62 33.64 69 22.22ZM59 75C56.7419 70.6187 55.5431 65.7688 55.5 60.84C55.5031 55.956 56.7086 51.1478 59.01 46.84C61.0888 50.9958 62.2355 55.5552 62.37 60.2C62.5339 65.3406 61.3734 70.4371 59 75V75ZM68.25 41.6C68.212 45.5312 67.7934 49.4495 67 53.3C67.1681 47.7205 66.6916 42.1402 65.58 36.67C64.49 31.46 61.41 22.74 58.95 18.67C56.67 22.5 53.88 30.04 52.41 36.58C51.3421 42.1217 50.8329 47.7566 50.89 53.4C49.9925 48.0156 49.6274 42.5559 49.8 37.1C50.0742 32.1011 50.8685 27.1443 52.17 22.31C53.8199 16.6585 56.0939 11.2082 58.95 6.06C61.865 11.1027 64.1711 16.4736 65.82 22.06C67.5381 28.428 68.3561 35.0052 68.25 41.6V41.6Z" fill="#0070BA"/>
<path d="M63.39 80.45H43.56V93.76V93.7C45.8556 91.7341 48.8085 90.7068 51.8286 90.8235C54.8487 90.9401 57.7136 92.1921 59.8508 94.3293C61.9879 96.4664 63.2399 99.3313 63.3565 102.351C63.4732 105.371 62.4459 108.324 60.48 110.62L60.42 110.68C60.42 110.68 60.42 110.68 60.35 110.75C57.562 113.518 54.1345 115.556 50.371 116.684C46.6075 117.812 42.624 117.995 38.7731 117.216C34.9222 116.437 31.3226 114.721 28.2931 112.219C25.2635 109.718 22.8974 106.508 21.4042 102.874C19.9109 99.2398 19.3365 95.2937 19.7319 91.3848C20.1273 87.4759 21.4802 83.7247 23.6709 80.4633C25.8617 77.2019 28.8226 74.5309 32.2918 72.6867C35.7609 70.8425 39.6311 69.8819 43.56 69.89V37.89C36.5006 37.8874 29.5514 39.6408 23.3383 42.9924C17.1252 46.3439 11.8434 51.1883 7.96851 57.0892C4.09366 62.9902 1.74751 69.7623 1.14135 76.7956C0.535201 83.829 1.68809 90.9026 4.49619 97.3795C7.30428 103.856 11.6794 109.533 17.2274 113.898C22.7755 118.263 29.3222 121.18 36.278 122.385C43.2338 123.59 50.3801 123.046 57.0733 120.802C63.7666 118.558 69.7965 114.685 74.62 109.53V80.45H63.39Z" fill="#0070BA"/>
<path d="M79.66 37.9H95.89V43.18H88.17V80.44H79.66V37.9Z" fill="#0070BA"/>
<path d="M105.07 64.46L106.53 43.18H107L108.46 64.46H105.07ZM95.66 80.46H104L104.79 69.15H108.79L109.58 80.46H117.91L113.46 37.9H100.09L95.66 80.46Z" fill="#0070BA"/>
<path d="M129.08 65.55V73.55C129.067 73.7312 129.093 73.9129 129.154 74.0838C129.216 74.2546 129.312 74.4109 129.437 74.5425C129.562 74.6741 129.713 74.7784 129.881 74.8485C130.048 74.9187 130.228 74.9532 130.41 74.95C130.59 74.9475 130.768 74.909 130.934 74.837C131.099 74.765 131.248 74.6608 131.373 74.5306C131.498 74.4003 131.595 74.2465 131.66 74.0782C131.725 73.9098 131.755 73.7303 131.75 73.55V63.67C131.75 62.33 131.51 60.87 128.35 60.87H124.88V56.19H128.47C130.9 56.19 131.75 55.65 131.75 53.03V44.58C131.755 44.3998 131.725 44.2202 131.66 44.0519C131.595 43.8836 131.498 43.7298 131.373 43.5995C131.248 43.4692 131.099 43.3651 130.934 43.293C130.768 43.221 130.59 43.1826 130.41 43.18C130.228 43.1768 130.048 43.2114 129.881 43.2816C129.713 43.3517 129.562 43.4559 129.437 43.5876C129.312 43.7192 129.216 43.8754 129.154 44.0463C129.093 44.2171 129.067 44.3989 129.08 44.58V51.51H120.57V45.51C120.57 42.51 120.94 37.91 126.89 37.91H133.94C139.94 37.91 140.26 42.53 140.26 45.51V52.31C140.26 56.93 137.04 58.21 134.49 58.09V58.51C140.2 58.39 140.26 62.77 140.26 64.28V72.85C140.26 75.85 139.9 80.45 133.94 80.45H126.89C120.94 80.45 120.57 75.83 120.57 72.85V65.55H129.08Z" fill="#0070BA"/>
<path d="M144.73 37.9H164.42V80.44H155.92V43.18H153.24V80.44H144.73V37.9Z" fill="#0070BA"/>
<path d="M177.9 61.3V43.18H179C179.91 43.18 180.58 43.97 180.58 45.3V59.17C180.58 60.51 179.91 61.3 179 61.3H177.9ZM169.4 80.44H177.9V66H182.76C188.76 66 189.08 61.38 189.08 58.4V45.5C189.08 42.5 188.72 37.9 182.76 37.9H169.4V80.44Z" fill="#0070BA"/>
<path d="M204.4 73.56C204.404 73.7399 204.372 73.9189 204.307 74.0866C204.242 74.2544 204.144 74.4076 204.02 74.5376C203.896 74.6677 203.747 74.7719 203.582 74.8443C203.417 74.9168 203.24 74.9561 203.06 74.96C202.878 74.9646 202.696 74.9311 202.528 74.8616C202.359 74.792 202.207 74.688 202.08 74.5563C201.954 74.4245 201.857 74.2678 201.795 74.0962C201.733 73.9247 201.707 73.742 201.72 73.56V44.56C201.707 44.378 201.733 44.1954 201.795 44.0238C201.857 43.8523 201.954 43.6956 202.08 43.5638C202.207 43.432 202.359 43.328 202.528 43.2585C202.696 43.1889 202.878 43.1554 203.06 43.16C203.24 43.1639 203.417 43.2032 203.582 43.2757C203.747 43.3482 203.896 43.4524 204.02 43.5824C204.144 43.7124 204.242 43.8657 204.307 44.0334C204.372 44.2012 204.404 44.3801 204.4 44.56V73.56ZM193.22 72.84C193.22 75.84 193.58 80.44 199.54 80.44H206.59C212.54 80.44 212.91 75.82 212.91 72.84V45.5C212.91 42.5 212.54 37.9 206.59 37.9H199.54C193.54 37.9 193.22 42.52 193.22 45.5V72.84Z" fill="#0070BA"/>
<path d="M239.41 37.9H250.41V80.44H242V53.76H241.69L237.32 80.44H230.51L226.1 53.76H225.79V80.44H217.29V37.9H228.34L233.88 67.8L239.41 37.9Z" fill="#0070BA"/>
<path fill-rule="evenodd" clip-rule="evenodd" d="M79.66 93.64H250.45V122.97H79.66V93.64ZM92.54 106.3H89.77V99.51H85.53V117.11H89.77V109.64H92.54V117.11H96.78V99.51H92.54V106.3ZM122.94 99.51H132.79V102.85H127.18V106.3H132.18V109.64H127.18V113.78H132.79V117.11H122.94V99.51ZM171.61 113.78V99.51L160.4 99.54V104.54C160.4 109.96 160.04 111.78 158.76 113.78H158.17V120.72H162.29V117.11H168.4V120.72H172.51V113.78H171.61ZM164.55 102.85H167.37V113.78H163.2C164.25 111.82 164.55 109.54 164.55 106.16V102.85ZM201.61 117.11H197.37V99.51H203.52C205.98 99.51 208.67 100.39 208.67 104.88C208.67 109.37 206.02 110.25 203.52 110.25H201.61V117.11ZM201.61 107.11H202.37C203.43 107.11 204.43 106.59 204.43 104.85C204.43 103.11 203.52 102.69 202.3 102.69H201.61V107.11ZM244.59 117.11L240.7 99.51H235.62L231.8 117.11H236.01L236.55 113.58H239.79L240.43 117.11H244.59ZM238.1 102.67L239.22 110.42H237L238.1 102.67Z" fill="#0070BA"/>
</svg>
