<svg width="15" height="15" viewBox="0 0 15 15" fill="none" xmlns="http://www.w3.org/2000/svg">
<path d="M8.42143 0.121858C10.7766 0.424298 13.243 1.20779 14.4128 3.27079C15.5517 5.27913 14.8378 7.71191 13.9285 9.83368C13.0936 11.7819 11.6998 13.391 9.73353 14.1892C7.58252 15.0623 5.08592 15.4459 3.11248 14.2243C1.10283 12.9803 0.32289 10.5607 0.078897 8.21258C-0.166982 5.84631 0.0968693 3.30949 1.80608 1.65187C3.51424 -0.00473553 6.05945 -0.181458 8.42143 0.121858Z" fill="#24C38E"/>
<path d="M10.0143 3.45702C11.4561 4.51921 13.4614 5.28953 13.6215 7.04652C13.7936 8.93495 12.4103 10.6729 10.7631 11.6758C9.26417 12.5883 7.43704 12.2938 5.72993 11.8511C4.03573 11.4118 2.06969 10.8852 1.48703 9.27045C0.927326 7.71926 2.40067 6.33352 3.22073 4.89706C3.99041 3.54884 4.42891 1.73933 5.97335 1.41195C7.53312 1.08133 8.74003 2.51825 10.0143 3.45702Z" fill="#F2C94C"/>
<path d="M4.90989 4.12967C5.50416 3.20342 6.65437 3.15366 7.63984 3.31009C8.4815 3.44369 9.16334 4.08016 9.67784 4.88649C10.1771 5.66896 10.5172 6.60783 10.3486 7.55523C10.1763 8.52317 9.57717 9.28738 8.82065 9.70314C8.0618 10.1202 7.17479 10.1698 6.41831 9.71522C5.66726 9.26384 5.2638 8.35855 5.00815 7.41188C4.71047 6.30962 4.32637 5.03914 4.90989 4.12967Z" fill="#FF4443"/>
</svg>
