<svg width="13" height="13" viewBox="0 0 13 13" fill="none" xmlns="http://www.w3.org/2000/svg">
<path d="M7.00822 0.613187C6.68612 0.462268 6.31363 0.462271 5.99154 0.613197L0.776049 3.05705C0.408077 3.22947 0.408081 3.75292 0.776058 3.92533L6.09339 6.41676C6.35106 6.5375 6.64904 6.5375 6.90671 6.41676L12.224 3.92534C12.592 3.75293 12.592 3.22947 12.224 3.05705L7.00822 0.613187Z" fill="#22272B"/>
<path d="M1.76804 5.58856L0.775977 6.05341C0.408004 6.22584 0.408009 6.74928 0.775985 6.9217L6.09332 9.41313C6.35099 9.53386 6.64897 9.53386 6.90664 9.41313L12.2239 6.92171C12.5919 6.74929 12.5919 6.22584 12.2239 6.05342L11.2319 5.58862L6.90671 7.6152C6.64904 7.73593 6.35106 7.73593 6.09339 7.6152L1.76804 5.58856Z" fill="#22272B"/>
<path d="M1.76804 8.58488L0.775977 9.04973C0.408004 9.22216 0.408009 9.7456 0.775985 9.91802L6.09332 12.4095C6.35099 12.5302 6.64897 12.5302 6.90664 12.4095L12.2239 9.91803C12.5919 9.74561 12.5919 9.22216 12.2239 9.04974L11.2319 8.58494L6.90671 10.6115C6.64904 10.7323 6.35106 10.7323 6.09339 10.6115L1.76804 8.58488Z" fill="#22272B"/>
</svg>
