<svg width="15" height="15" viewBox="0 0 15 15" fill="none" xmlns="http://www.w3.org/2000/svg">
<rect x="1.68726" y="3.19263" width="1.55607" height="12.2416" transform="rotate(-27.2204 1.68726 3.19263)" fill="#88C8ED"/>
<rect width="1.55607" height="12.7506" transform="matrix(-0.912051 -0.410077 -0.410077 0.912051 13.9089 2.58105)" fill="#88C8ED"/>
<path d="M3.81747 2.53508C3.81747 3.39447 3.12079 4.09115 2.26139 4.09115C1.402 4.09115 0.705322 3.39447 0.705322 2.53508C0.705322 1.67568 1.402 0.979004 2.26139 0.979004C3.12079 0.979004 3.81747 1.67568 3.81747 2.53508Z" fill="black"/>
<circle cx="7.93376" cy="13.444" r="1.55607" fill="black"/>
<path d="M14.6988 2.56926C14.6988 3.42865 14.0021 4.12533 13.1427 4.12533C12.2833 4.12533 11.5867 3.42865 11.5867 2.56926C11.5867 1.70986 12.2833 1.01318 13.1427 1.01318C14.0021 1.01318 14.6988 1.70986 14.6988 2.56926Z" fill="black"/>
</svg>
