<svg width="16" height="17" viewBox="0 0 16 17" fill="none" xmlns="http://www.w3.org/2000/svg">
<path fill-rule="evenodd" clip-rule="evenodd" d="M5.41396 10.3002C5.56198 10.1371 5.76272 10.0454 5.97204 10.0454C6.25307 10.0454 6.5129 10.2101 6.65423 10.4778L6.77868 10.7135C7.45183 11.9884 8.68941 12.7727 10.028 12.7727C11.025 12.7727 11.9811 12.3363 12.6861 11.5594L14 10.1116L13.3761 9.42409L12.1023 10.7879C11.5678 11.3602 10.8429 11.6817 10.0871 11.6817C9.07226 11.6817 8.13401 11.1039 7.62367 10.1648L7.49559 9.92907C7.16769 9.32565 6.56487 8.95443 5.91285 8.95443C5.42721 8.95443 4.96145 9.161 4.61805 9.52868L3.33388 10.9037L4.10009 11.748L5.41396 10.3002ZM2.62379 10.1212L2 9.4338L3.31388 7.98599C4.01887 7.20914 4.97504 6.77271 5.97204 6.77271C7.31059 6.77271 8.54817 7.55702 9.22132 8.83193L9.34577 9.06764C9.4871 9.33531 9.74693 9.49998 10.028 9.49998C10.2373 9.49998 10.438 9.40835 10.586 9.24525L11.8999 7.79744L12.666 8.64161L11.3819 10.0165C11.0385 10.3842 10.5727 10.5908 10.0871 10.5908C9.43505 10.5908 8.83222 10.2196 8.50432 9.61617L8.37624 9.38045C7.8659 8.44129 6.92765 7.86353 5.91285 7.86353C5.15699 7.86353 4.43208 8.18502 3.89761 8.75729L2.62379 10.1212Z" fill="#88C8ED"/>
<path d="M11.9545 6.77271L11.9545 5.79089L8.54545 5.79089L8.54545 4.4818L11.9545 4.4818L11.9545 3.49998L14 5.13634L11.9545 6.77271Z" fill="black"/>
</svg>
