<svg width="19" height="11" viewBox="0 0 19 11" fill="none" xmlns="http://www.w3.org/2000/svg">
<path fill-rule="evenodd" clip-rule="evenodd" d="M12.6498 0.225989C12.1187 0.074265 11.5652 0.381757 11.4135 0.912792C11.2618 1.44383 11.5693 1.99731 12.1003 2.14904L15.3687 3.08287L11.0314 6.33589L8.76965 4.07416L8.14543 3.44994L7.44861 3.99191L0.979855 9.02316C0.543908 9.36223 0.465374 9.99051 0.804444 10.4265C1.14351 10.8624 1.77179 10.9409 2.20774 10.6019L7.97966 6.11259L10.2304 8.36337L10.8437 8.97664L11.5375 8.45626L16.4063 4.8047V7.65626C16.4063 8.20855 16.854 8.65626 17.4063 8.65626C17.9586 8.65626 18.4063 8.20855 18.4063 7.65626V2.62501V1.87071L17.681 1.66349L12.6498 0.225989Z" fill="#24C38E"/>
</svg>
