<svg width="15" height="15" viewBox="0 0 15 15" fill="none" xmlns="http://www.w3.org/2000/svg">
<path fill-rule="evenodd" clip-rule="evenodd" d="M9.52316 5.37236L14.6883 10.5385C14.8879 10.7392 15 11.0107 15 11.2937C15 11.5767 14.8879 11.8482 14.6883 12.0489L12.051 14.6893C11.8499 14.8885 11.5782 15.0002 11.2951 15C11.154 15.0008 11.0142 14.9738 10.8836 14.9205C10.7529 14.8672 10.6341 14.7886 10.534 14.6893L5.37062 9.5249L6.12877 8.76676L11.2951 13.9288L13.9324 11.2937L12.4583 9.79943L11.2523 11.0045L10.475 10.2493L11.6811 9.04424L9.46725 6.83227L8.26117 8.03734L7.55938 7.33614L9.52316 5.37236ZM8.81613 4.66518L4.46603 0.314162C4.36647 0.214567 4.24823 0.135559 4.11808 0.0816524C3.98793 0.0277462 3.84843 0 3.70754 0C3.56666 0 3.42715 0.0277462 3.297 0.0816524C3.16686 0.135559 3.04862 0.214567 2.94905 0.314162L0.311751 2.95461C0.112076 3.15531 0 3.4268 0 3.70979C0 3.99278 0.112076 4.26427 0.311751 4.46497L4.66359 8.81772L5.42136 8.05995L1.06756 3.70979L3.70486 1.0747L5.73644 3.10457L4.53036 4.28822L5.28617 5.0434L6.49225 3.85975L8.05756 5.42375L8.81613 4.66518Z" fill="black"/>
<path d="M13.7493 1.85352L1.74933 13.8535" stroke="#CE0000"/>
</svg>
